<svg width="118" height="42" viewBox="0 0 118 42" fill="none" xmlns="http://www.w3.org/2000/svg">
<rect width="118" height="35" rx="10" fill="black"/>
<rect x="8" y="4" width="102" height="28" rx="5" fill="white"/>
<path d="M24.84 12.79C24.12 12.19 23.31 12.01 22.74 12.73C22.32 13.54 23.55 14.11 25.17 15.04C27.09 16.15 28.47 17.29 29.31 18.4C30.15 19.51 30.48 20.95 30.27 22.69C29.94 25.57 27.84 27.55 25.29 28.18C22.74 28.81 19.68 28.51 17.43 27.22C15.96 26.35 15.27 25.24 15.39 23.86C15.48 22.78 15.99 21.94 16.89 21.37C18 20.68 19.14 20.77 20.31 21.61C20.37 21.64 20.43 21.7 20.49 21.76C21.69 22.75 23.07 23.11 23.58 22.18C23.73 21.79 23.67 21.4 23.1 21.01C22.53 20.62 22.29 20.47 21.33 19.99C19.44 19.12 18.09 18.19 17.25 17.2C16.41 16.21 15.99 14.8 16.02 13.03C16.02 11.44 16.5 10.09 17.46 8.98C18.42 7.87 19.56 7.12 20.91 6.73C22.26 6.34 23.67 6.28 25.14 6.52C26.61 6.73 27.87 7.3 28.92 8.17C32.1 10.81 27.9 15.31 24.84 12.79ZM34.5124 6.82C35.9224 6.82 37.1824 6.85 38.2324 6.94C40.3624 7.09 42.5824 7.45 43.9924 8.26C46.1824 9.46 47.4424 11.35 47.3824 14.92C47.3524 20.56 43.6924 23.29 37.8124 23.29L37.8424 25.21C37.8424 29.32 31.3924 29.14 31.3024 25.27C31.1524 19.51 31.2124 14.35 31.4224 9.79C31.5124 8.11 32.8324 6.82 34.5124 6.82ZM37.9024 13.42L37.8424 16.9C39.4624 16.93 40.5124 16.54 40.9924 15.73C41.3524 15.13 41.2024 14.59 40.5724 14.08C39.9724 13.63 39.0724 13.39 37.9024 13.42ZM56.673 6.61C59.703 6.61 61.953 7.57 63.393 9.46C64.833 11.35 65.523 13.93 65.493 17.17C65.493 20.56 64.743 23.29 63.273 25.3C61.803 27.31 59.613 28.33 56.643 28.33C53.643 28.36 51.423 27.37 50.013 25.36C48.603 23.35 47.883 20.71 47.853 17.41C47.763 11.17 50.193 6.61 56.673 6.61ZM56.673 13.15C55.263 13.18 54.423 15.07 54.423 17.26C54.393 18.4 54.573 19.39 54.963 20.2C55.353 21.01 55.923 21.43 56.643 21.4C57.423 21.4 58.023 20.98 58.413 20.14C58.833 19.3 59.013 18.31 58.983 17.2C58.893 15.04 58.083 13.18 56.673 13.15ZM75.2766 6.61C78.3066 6.61 80.5566 7.57 81.9966 9.46C83.4366 11.35 84.1266 13.93 84.0966 17.17C84.0966 20.56 83.3466 23.29 81.8766 25.3C80.4066 27.31 78.2166 28.33 75.2466 28.33C72.2466 28.36 70.0266 27.37 68.6166 25.36C67.2066 23.35 66.4866 20.71 66.4566 17.41C66.3666 11.17 68.7966 6.61 75.2766 6.61ZM75.2766 13.15C73.8666 13.18 73.0266 15.07 73.0266 17.26C72.9966 18.4 73.1766 19.39 73.5666 20.2C73.9566 21.01 74.5266 21.43 75.2466 21.4C76.0266 21.4 76.6266 20.98 77.0166 20.14C77.4366 19.3 77.6166 18.31 77.5866 17.2C77.4966 15.04 76.6866 13.18 75.2766 13.15ZM101.65 9.82C101.68 15.49 101.65 20.59 101.53 25.06C101.5 26.05 101.11 26.83 100.36 27.4C99.6101 27.97 98.7701 28.18 97.8101 28.06C96.8501 27.97 96.1001 27.52 95.5301 26.71L93.4601 23.5C92.5001 21.97 91.7801 20.86 91.2701 20.2C91.2401 20.71 91.2701 21.55 91.3601 22.69C91.4501 23.83 91.5101 24.67 91.5101 25.18C91.5101 26.14 91.1801 26.89 90.4901 27.43C89.8301 27.94 89.1101 28.21 88.3001 28.21C86.7101 28.21 85.0901 27.07 85.0601 25.24C85.0301 20.89 85.0901 15.73 85.1801 9.79C85.2101 8.8 85.6301 8.02 86.4401 7.45C87.2501 6.88 88.1501 6.67 89.1101 6.82C90.0701 6.97 90.7901 7.45 91.2401 8.26C93.0701 11.29 94.4201 13.39 95.3201 14.59C95.3501 14.05 95.3501 13.21 95.2601 12.1C95.2001 10.96 95.1701 10.15 95.1701 9.67C95.1701 5.74 101.65 5.8 101.65 9.82Z" fill="#FF6347"/>
</svg>
