<svg xmlns="http://www.w3.org/2000/svg" xmlns:xlink="http://www.w3.org/1999/xlink" width="500" zoomAndPan="magnify" viewBox="0 0 375 374.999991" height="500" preserveAspectRatio="xMidYMid meet" version="1.0"><defs><g/><clipPath id="69b26bfc71"><path d="M 60 146 L 110.964844 146 L 110.964844 194.5 L 60 194.5 Z M 60 146 " clip-rule="nonzero"/></clipPath><clipPath id="0ae90d8078"><path d="M 75 131.5 L 95 131.5 L 95 145 L 75 145 Z M 75 131.5 " clip-rule="nonzero"/></clipPath></defs><g fill="#ff6347" fill-opacity="1"><g transform="translate(119.066137, 192.154967)"><g><path d="M 4.234375 -37.09375 L 11.125 -37.09375 L 29.359375 -5.828125 L 29.46875 -5.828125 L 29.421875 -6.359375 L 29.421875 -37.09375 L 34.1875 -37.09375 L 34.1875 0 L 27.296875 0 L 9.0625 -31.265625 L 8.953125 -31.265625 L 9.015625 -30.734375 L 9.015625 -0.046875 L 4.234375 0 Z M 4.234375 -37.09375 "/></g></g></g><g fill="#ff6347" fill-opacity="1"><g transform="translate(157.485496, 192.154967)"><g><path d="M 10.59375 -37.09375 L 25.171875 -37.09375 L 34.71875 0 L 29.9375 0 L 27.03125 -10.859375 L 8.75 -10.859375 L 5.828125 0 L 1.0625 0 Z M 25.96875 -15.375 L 21.46875 -32.59375 L 14.3125 -32.59375 L 9.8125 -15.375 Z M 25.96875 -15.375 "/></g></g></g><g fill="#ff6347" fill-opacity="1"><g transform="translate(193.255249, 192.154967)"><g><path d="M 17.484375 1.0625 C 15.796875 1.0625 14.28125 0.890625 12.9375 0.546875 C 11.59375 0.210938 10.40625 -0.222656 9.375 -0.765625 C 8.351562 -1.316406 7.453125 -1.9375 6.671875 -2.625 C 5.898438 -3.3125 5.25 -4.023438 4.71875 -4.765625 C 3.445312 -6.460938 2.582031 -8.40625 2.125 -10.59375 L 6.890625 -10.59375 C 7.242188 -9.257812 7.878906 -8.0625 8.796875 -7 C 9.578125 -6.082031 10.65625 -5.257812 12.03125 -4.53125 C 13.40625 -3.800781 15.222656 -3.4375 17.484375 -3.4375 C 19.078125 -3.4375 20.457031 -3.601562 21.625 -3.9375 C 22.789062 -4.28125 23.753906 -4.742188 24.515625 -5.328125 C 25.273438 -5.910156 25.835938 -6.585938 26.203125 -7.359375 C 26.578125 -8.140625 26.765625 -8.957031 26.765625 -9.8125 C 26.765625 -10.9375 26.4375 -11.867188 25.78125 -12.609375 C 25.125 -13.359375 24.25 -13.992188 23.15625 -14.515625 C 22.0625 -15.046875 20.828125 -15.503906 19.453125 -15.890625 C 18.078125 -16.285156 16.671875 -16.6875 15.234375 -17.09375 C 13.804688 -17.5 12.398438 -17.96875 11.015625 -18.5 C 9.640625 -19.03125 8.40625 -19.679688 7.3125 -20.453125 C 6.21875 -21.234375 5.34375 -22.195312 4.6875 -23.34375 C 4.03125 -24.488281 3.703125 -25.894531 3.703125 -27.5625 C 3.703125 -28.9375 4.007812 -30.269531 4.625 -31.5625 C 5.25 -32.851562 6.125 -33.984375 7.25 -34.953125 C 8.382812 -35.921875 9.773438 -36.695312 11.421875 -37.28125 C 13.066406 -37.863281 14.910156 -38.15625 16.953125 -38.15625 C 18.515625 -38.15625 19.921875 -38.003906 21.171875 -37.703125 C 22.429688 -37.410156 23.535156 -37.023438 24.484375 -36.546875 C 25.441406 -36.066406 26.28125 -35.507812 27 -34.875 C 27.726562 -34.238281 28.335938 -33.601562 28.828125 -32.96875 C 29.992188 -31.445312 30.804688 -29.734375 31.265625 -27.828125 L 26.5 -27.828125 C 26.175781 -28.890625 25.609375 -29.859375 24.796875 -30.734375 C 24.097656 -31.441406 23.128906 -32.101562 21.890625 -32.71875 C 20.648438 -33.34375 19.003906 -33.65625 16.953125 -33.65625 C 15.578125 -33.65625 14.359375 -33.484375 13.296875 -33.140625 C 12.242188 -32.804688 11.351562 -32.359375 10.625 -31.796875 C 9.90625 -31.234375 9.367188 -30.578125 9.015625 -29.828125 C 8.660156 -29.085938 8.484375 -28.332031 8.484375 -27.5625 C 8.484375 -26.113281 9.046875 -24.972656 10.171875 -24.140625 C 11.304688 -23.304688 12.726562 -22.597656 14.4375 -22.015625 C 16.15625 -21.429688 18.007812 -20.882812 20 -20.375 C 22 -19.863281 23.851562 -19.191406 25.5625 -18.359375 C 27.28125 -17.535156 28.703125 -16.453125 29.828125 -15.109375 C 30.960938 -13.765625 31.53125 -12 31.53125 -9.8125 C 31.53125 -8.351562 31.222656 -6.960938 30.609375 -5.640625 C 29.992188 -4.316406 29.082031 -3.160156 27.875 -2.171875 C 26.675781 -1.179688 25.207031 -0.394531 23.46875 0.1875 C 21.738281 0.769531 19.742188 1.0625 17.484375 1.0625 Z M 17.484375 1.0625 "/></g></g></g><g fill="#ff6347" fill-opacity="1"><g transform="translate(227.170271, 192.154967)"><g><path d="M 10.59375 -37.09375 L 25.171875 -37.09375 L 34.71875 0 L 29.9375 0 L 27.03125 -10.859375 L 8.75 -10.859375 L 5.828125 0 L 1.0625 0 Z M 25.96875 -15.375 L 21.46875 -32.59375 L 14.3125 -32.59375 L 9.8125 -15.375 Z M 25.96875 -15.375 "/></g></g></g><g fill="#ff6347" fill-opacity="1"><g transform="translate(262.940025, 192.154967)"><g><path d="M 4.234375 -37.09375 L 20.140625 -37.09375 C 22.253906 -37.09375 24.148438 -36.789062 25.828125 -36.1875 C 27.515625 -35.59375 28.929688 -34.773438 30.078125 -33.734375 C 31.222656 -32.691406 32.101562 -31.460938 32.71875 -30.046875 C 33.34375 -28.640625 33.65625 -27.101562 33.65625 -25.4375 C 33.65625 -22.6875 32.804688 -20.3125 31.109375 -18.3125 C 29.410156 -16.3125 26.988281 -14.976562 23.84375 -14.3125 L 33.390625 0 L 27.828125 0 L 18.8125 -13.78125 L 9.015625 -13.78125 L 9.015625 0 L 4.234375 0 Z M 20.140625 -18.28125 C 23.066406 -18.28125 25.253906 -18.941406 26.703125 -20.265625 C 28.160156 -21.597656 28.890625 -23.320312 28.890625 -25.4375 C 28.890625 -27.5625 28.160156 -29.285156 26.703125 -30.609375 C 25.253906 -31.929688 23.066406 -32.59375 20.140625 -32.59375 L 9.015625 -32.59375 L 9.015625 -18.28125 Z M 20.140625 -18.28125 "/></g></g></g><g fill="#ff6347" fill-opacity="1"><g transform="translate(299.239698, 192.154967)"><g><path d="M 4.234375 -37.09375 L 9.015625 -37.09375 L 9.015625 0 L 4.234375 0 Z M 4.234375 -37.09375 "/></g></g></g><g clip-path="url(#69b26bfc71)"><path fill="#ff6347" d="M 110.429688 188.582031 L 106.402344 151.589844 C 106.109375 148.890625 103.839844 146.855469 101.125 146.855469 L 69.503906 146.855469 C 66.789062 146.855469 64.519531 148.890625 64.222656 151.589844 L 60.199219 188.582031 C 60.035156 190.082031 60.519531 191.582031 61.523438 192.707031 C 62.53125 193.824219 63.96875 194.46875 65.476562 194.46875 L 105.152344 194.46875 C 106.660156 194.46875 108.097656 193.824219 109.105469 192.707031 C 110.109375 191.582031 110.59375 190.082031 110.429688 188.582031 Z M 92.714844 160.105469 C 93.882812 160.105469 94.828125 161.050781 94.828125 162.21875 C 94.828125 163.382812 93.882812 164.328125 92.714844 164.328125 C 91.546875 164.328125 90.601562 163.382812 90.601562 162.21875 C 90.601562 161.050781 91.546875 160.105469 92.714844 160.105469 Z M 99.527344 169.949219 C 97.980469 176.585938 92.132812 181.21875 85.3125 181.21875 L 85.3125 191.703125 L 65.476562 191.703125 C 64.742188 191.703125 64.070312 191.402344 63.578125 190.859375 C 63.089844 190.316406 62.863281 189.609375 62.941406 188.882812 L 66.96875 151.890625 C 67.109375 150.59375 68.199219 149.617188 69.503906 149.617188 L 85.3125 149.617188 L 85.3125 178.457031 C 90.84375 178.457031 95.582031 174.699219 96.832031 169.324219 C 97.007812 168.582031 97.75 168.117188 98.496094 168.292969 C 99.238281 168.464844 99.699219 169.207031 99.527344 169.949219 Z M 99.527344 169.949219 " fill-opacity="1" fill-rule="nonzero"/></g><g clip-path="url(#0ae90d8078)"><path fill="#ff6347" d="M 85.3125 131.515625 C 80.027344 131.515625 75.730469 135.816406 75.730469 141.101562 L 75.730469 144.941406 L 79.082031 144.941406 L 79.082031 141.101562 C 79.082031 137.664062 81.875 134.867188 85.3125 134.867188 C 88.753906 134.867188 91.546875 137.664062 91.546875 141.101562 L 91.546875 144.941406 L 94.898438 144.941406 L 94.898438 141.101562 C 94.898438 135.816406 90.601562 131.515625 85.3125 131.515625 Z M 85.3125 131.515625 " fill-opacity="1" fill-rule="nonzero"/></g><path fill="#ff6347" d="M 85.3125 178.457031 L 85.3125 181.21875 C 78.492188 181.21875 72.648438 176.585938 71.101562 169.949219 C 70.929688 169.207031 71.390625 168.464844 72.132812 168.292969 C 72.878906 168.117188 73.621094 168.582031 73.792969 169.324219 C 75.046875 174.699219 79.785156 178.457031 85.3125 178.457031 Z M 85.3125 178.457031 " fill-opacity="1" fill-rule="nonzero"/><path fill="#ff6347" d="M 77.914062 160.105469 C 76.746094 160.105469 75.800781 161.050781 75.800781 162.21875 C 75.800781 163.382812 76.746094 164.328125 77.914062 164.328125 C 79.082031 164.328125 80.027344 163.382812 80.027344 162.21875 C 80.027344 161.050781 79.082031 160.105469 77.914062 160.105469 Z M 77.914062 160.105469 " fill-opacity="1" fill-rule="nonzero"/></svg>